<?xml version="1.0" encoding="UTF-8" standalone="no"?>
<!DOCTYPE svg PUBLIC "-//W3C//DTD SVG 1.1//EN"
 "http://www.w3.org/Graphics/SVG/1.1/DTD/svg11.dtd">
<!-- Generated by graphviz version 2.38.0 (20140413.2041)
 -->
<!-- Title: G Pages: 1 -->
<svg width="1750pt" height="422pt"
 viewBox="0.00 0.00 1749.80 421.99" xmlns="http://www.w3.org/2000/svg" xmlns:xlink="http://www.w3.org/1999/xlink">
<g id="graph0" class="graph" transform="scale(1 1) rotate(0) translate(4 417.99)">
<title>G</title>
<polygon fill="white" stroke="none" points="-4,4 -4,-417.99 1745.8,-417.99 1745.8,4 -4,4"/>
<!-- F_0_0_0 -->
<g id="node1" class="node"><title>F_0_0_0</title>
<ellipse fill="#dcdcdc" stroke="#888888" cx="912.799" cy="-18" rx="18" ry="18"/>
</g>
<!-- F_1_1_1 -->
<g id="node2" class="node"><title>F_1_1_1</title>
<ellipse fill="#dcdcdc" stroke="#888888" cx="671.799" cy="-91.799" rx="19.6" ry="19.6"/>
<text text-anchor="middle" x="671.799" y="-85.799" font-family="Latin Modern" font-size="20.00">1</text>
</g>
<!-- F_1_1_1&#45;&#45;F_0_0_0 -->
<g id="edge1" class="edge"><title>F_1_1_1&#45;&#45;F_0_0_0</title>
<path fill="none" stroke="black" d="M690.71,-85.165C736.316,-71.578 851.813,-37.1689 895.606,-24.1222"/>
</g>
<!-- M_32_1_0 -->
<g id="node3" class="node"><title>M_32_1_0</title>
<polygon fill="#dcdcdc" stroke="#888888" points="1116.8,-109.799 1080.8,-109.799 1080.8,-73.799 1116.8,-73.799 1116.8,-109.799"/>
<text text-anchor="middle" x="1098.8" y="-85.799" font-family="Latin Modern" font-size="20.00">0</text>
</g>
<!-- M_32_1_0&#45;&#45;F_0_0_0 -->
<g id="edge2" class="edge"><title>M_32_1_0&#45;&#45;F_0_0_0</title>
<path fill="none" stroke="black" d="M1080.63,-83.7839C1044.52,-69.8459 964.235,-38.8552 929.429,-25.4193"/>
</g>
<!-- F_2_2_2 -->
<g id="node4" class="node"><title>F_2_2_2</title>
<ellipse fill="#dcdcdc" stroke="#888888" cx="326.799" cy="-167.397" rx="19.6" ry="19.6"/>
<text text-anchor="middle" x="326.799" y="-161.397" font-family="Latin Modern" font-size="20.00">2</text>
</g>
<!-- F_2_2_2&#45;&#45;F_1_1_1 -->
<g id="edge3" class="edge"><title>F_2_2_2&#45;&#45;F_1_1_1</title>
<path fill="none" stroke="black" d="M346.336,-162.229C407.06,-149.275 592.046,-109.813 652.476,-96.9211"/>
</g>
<!-- M_17_2_1 -->
<g id="node5" class="node"><title>M_17_2_1</title>
<polygon fill="#dcdcdc" stroke="#888888" points="689.799,-185.397 653.799,-185.397 653.799,-149.397 689.799,-149.397 689.799,-185.397"/>
<text text-anchor="middle" x="671.799" y="-161.397" font-family="Latin Modern" font-size="20.00">1</text>
</g>
<!-- M_17_2_1&#45;&#45;F_1_1_1 -->
<g id="edge4" class="edge"><title>M_17_2_1&#45;&#45;F_1_1_1</title>
<path fill="none" stroke="black" d="M671.799,-149.327C671.799,-138.117 671.799,-123.438 671.799,-111.848"/>
</g>
<!-- F_33_2_1 -->
<g id="node6" class="node"><title>F_33_2_1</title>
<ellipse fill="#dcdcdc" stroke="#888888" cx="1098.8" cy="-167.397" rx="19.6" ry="19.6"/>
<text text-anchor="middle" x="1098.8" y="-161.397" font-family="Latin Modern" font-size="20.00">1</text>
</g>
<!-- F_33_2_1&#45;&#45;M_32_1_0 -->
<g id="edge5" class="edge"><title>F_33_2_1&#45;&#45;M_32_1_0</title>
<path fill="none" stroke="black" d="M1098.8,-147.444C1098.8,-135.859 1098.8,-121.161 1098.8,-109.927"/>
</g>
<!-- M_48_2_0 -->
<g id="node7" class="node"><title>M_48_2_0</title>
<polygon fill="none" stroke="#888888" points="1444.8,-185.397 1408.8,-185.397 1408.8,-149.397 1444.8,-149.397 1444.8,-185.397"/>
</g>
<!-- M_48_2_0&#45;&#45;M_32_1_0 -->
<g id="edge6" class="edge"><title>M_48_2_0&#45;&#45;M_32_1_0</title>
<path fill="none" stroke="black" d="M1408.7,-162.335C1351.35,-149.468 1174.11,-109.698 1116.84,-96.8482"/>
</g>
<!-- F_3_3_3 -->
<g id="node8" class="node"><title>F_3_3_3</title>
<ellipse fill="#dcdcdc" stroke="#888888" cx="159.799" cy="-242.995" rx="19.6" ry="19.6"/>
<text text-anchor="middle" x="159.799" y="-236.995" font-family="Latin Modern" font-size="20.00">3</text>
</g>
<!-- F_3_3_3&#45;&#45;F_2_2_2 -->
<g id="edge7" class="edge"><title>F_3_3_3&#45;&#45;F_2_2_2</title>
<path fill="none" stroke="black" d="M177.671,-234.119C209.814,-219.953 277.006,-190.341 309.056,-176.217"/>
</g>
<!-- M_10_3_2 -->
<g id="node9" class="node"><title>M_10_3_2</title>
<polygon fill="#dcdcdc" stroke="#888888" points="344.799,-260.995 308.799,-260.995 308.799,-224.995 344.799,-224.995 344.799,-260.995"/>
<text text-anchor="middle" x="326.799" y="-236.995" font-family="Latin Modern" font-size="20.00">2</text>
</g>
<!-- M_10_3_2&#45;&#45;F_2_2_2 -->
<g id="edge8" class="edge"><title>M_10_3_2&#45;&#45;F_2_2_2</title>
<path fill="none" stroke="black" d="M326.799,-224.925C326.799,-213.715 326.799,-199.036 326.799,-187.446"/>
</g>
<!-- F_18_3_2 -->
<g id="node10" class="node"><title>F_18_3_2</title>
<ellipse fill="#dcdcdc" stroke="#888888" cx="603.799" cy="-242.995" rx="19.6" ry="19.6"/>
<text text-anchor="middle" x="603.799" y="-236.995" font-family="Latin Modern" font-size="20.00">2</text>
</g>
<!-- F_18_3_2&#45;&#45;M_17_2_1 -->
<g id="edge9" class="edge"><title>F_18_3_2&#45;&#45;M_17_2_1</title>
<path fill="none" stroke="black" d="M616.91,-227.805C628.025,-215.774 644.003,-198.481 655.856,-185.652"/>
</g>
<!-- M_25_3_1 -->
<g id="node11" class="node"><title>M_25_3_1</title>
<polygon fill="none" stroke="#888888" points="730.799,-260.995 694.799,-260.995 694.799,-224.995 730.799,-224.995 730.799,-260.995"/>
</g>
<!-- M_25_3_1&#45;&#45;M_17_2_1 -->
<g id="edge10" class="edge"><title>M_25_3_1&#45;&#45;M_17_2_1</title>
<path fill="none" stroke="black" d="M703.29,-224.925C696.713,-213.12 687.995,-197.469 681.399,-185.629"/>
</g>
<!-- F_34_3_2 -->
<g id="node12" class="node"><title>F_34_3_2</title>
<ellipse fill="#dcdcdc" stroke="#888888" cx="1043.8" cy="-242.995" rx="19.6" ry="19.6"/>
<text text-anchor="middle" x="1043.8" y="-236.995" font-family="Latin Modern" font-size="20.00">2</text>
</g>
<!-- F_34_3_2&#45;&#45;F_33_2_1 -->
<g id="edge11" class="edge"><title>F_34_3_2&#45;&#45;F_33_2_1</title>
<path fill="none" stroke="black" d="M1055.2,-226.745C1064.63,-214.114 1077.98,-196.253 1087.42,-183.627"/>
</g>
<!-- M_41_3_1 -->
<g id="node13" class="node"><title>M_41_3_1</title>
<polygon fill="#dcdcdc" stroke="#888888" points="1172.8,-260.995 1136.8,-260.995 1136.8,-224.995 1172.8,-224.995 1172.8,-260.995"/>
<text text-anchor="middle" x="1154.8" y="-236.995" font-family="Latin Modern" font-size="20.00">1</text>
</g>
<!-- M_41_3_1&#45;&#45;F_33_2_1 -->
<g id="edge12" class="edge"><title>M_41_3_1&#45;&#45;F_33_2_1</title>
<path fill="none" stroke="black" d="M1141.81,-224.925C1132.38,-212.526 1119.71,-195.883 1110.57,-183.87"/>
</g>
<!-- F_49_3_0 -->
<g id="node14" class="node"><title>F_49_3_0</title>
<ellipse fill="none" stroke="#888888" cx="1426.8" cy="-242.995" rx="18" ry="18"/>
</g>
<!-- F_49_3_0&#45;&#45;M_48_2_0 -->
<g id="edge13" class="edge"><title>F_49_3_0&#45;&#45;M_48_2_0</title>
<path fill="none" stroke="black" d="M1426.8,-224.925C1426.8,-213.12 1426.8,-197.469 1426.8,-185.629"/>
</g>
<!-- M_56_3_0 -->
<g id="node15" class="node"><title>M_56_3_0</title>
<polygon fill="none" stroke="#888888" points="1606.8,-260.995 1570.8,-260.995 1570.8,-224.995 1606.8,-224.995 1606.8,-260.995"/>
</g>
<!-- M_56_3_0&#45;&#45;M_48_2_0 -->
<g id="edge14" class="edge"><title>M_56_3_0&#45;&#45;M_48_2_0</title>
<path fill="none" stroke="black" d="M1570.53,-233.695C1539.42,-219.56 1476.49,-190.97 1445.25,-176.779"/>
</g>
<!-- F_4_4_4 -->
<g id="node16" class="node"><title>F_4_4_4</title>
<ellipse fill="#dcdcdc" stroke="#888888" cx="75.799" cy="-318.593" rx="19.6" ry="19.6"/>
<text text-anchor="middle" x="75.799" y="-312.593" font-family="Latin Modern" font-size="20.00">4</text>
</g>
<!-- F_4_4_4&#45;&#45;F_3_3_3 -->
<g id="edge15" class="edge"><title>F_4_4_4&#45;&#45;F_3_3_3</title>
<path fill="none" stroke="black" d="M90.4307,-304.773C105.848,-291.265 129.981,-270.121 145.335,-256.668"/>
</g>
<!-- M_7_4_3 -->
<g id="node17" class="node"><title>M_7_4_3</title>
<polygon fill="#dcdcdc" stroke="#888888" points="177.799,-336.593 141.799,-336.593 141.799,-300.593 177.799,-300.593 177.799,-336.593"/>
<text text-anchor="middle" x="159.799" y="-312.593" font-family="Latin Modern" font-size="20.00">3</text>
</g>
<!-- M_7_4_3&#45;&#45;F_3_3_3 -->
<g id="edge16" class="edge"><title>M_7_4_3&#45;&#45;F_3_3_3</title>
<path fill="none" stroke="black" d="M159.799,-300.523C159.799,-289.313 159.799,-274.634 159.799,-263.044"/>
</g>
<!-- F_11_4_3 -->
<g id="node18" class="node"><title>F_11_4_3</title>
<ellipse fill="#dcdcdc" stroke="#888888" cx="298.799" cy="-318.593" rx="19.6" ry="19.6"/>
<text text-anchor="middle" x="298.799" y="-312.593" font-family="Latin Modern" font-size="20.00">3</text>
</g>
<!-- F_11_4_3&#45;&#45;M_10_3_2 -->
<g id="edge17" class="edge"><title>F_11_4_3&#45;&#45;M_10_3_2</title>
<path fill="none" stroke="black" d="M305.577,-299.777C310.044,-288.035 315.862,-272.743 320.276,-261.14"/>
</g>
<!-- M_14_4_2 -->
<g id="node19" class="node"><title>M_14_4_2</title>
<polygon fill="none" stroke="#888888" points="372.799,-336.593 336.799,-336.593 336.799,-300.593 372.799,-300.593 372.799,-336.593"/>
</g>
<!-- M_14_4_2&#45;&#45;M_10_3_2 -->
<g id="edge18" class="edge"><title>M_14_4_2&#45;&#45;M_10_3_2</title>
<path fill="none" stroke="black" d="M348.305,-300.523C343.814,-288.718 337.859,-273.067 333.355,-261.227"/>
</g>
<!-- F_19_4_3 -->
<g id="node20" class="node"><title>F_19_4_3</title>
<ellipse fill="#dcdcdc" stroke="#888888" cx="519.799" cy="-318.593" rx="19.6" ry="19.6"/>
<text text-anchor="middle" x="519.799" y="-312.593" font-family="Latin Modern" font-size="20.00">3</text>
</g>
<!-- F_19_4_3&#45;&#45;F_18_3_2 -->
<g id="edge19" class="edge"><title>F_19_4_3&#45;&#45;F_18_3_2</title>
<path fill="none" stroke="black" d="M534.431,-304.773C549.848,-291.265 573.981,-270.121 589.335,-256.668"/>
</g>
<!-- M_22_4_2 -->
<g id="node21" class="node"><title>M_22_4_2</title>
<polygon fill="#dcdcdc" stroke="#888888" points="621.799,-336.593 585.799,-336.593 585.799,-300.593 621.799,-300.593 621.799,-336.593"/>
<text text-anchor="middle" x="603.799" y="-312.593" font-family="Latin Modern" font-size="20.00">2</text>
</g>
<!-- M_22_4_2&#45;&#45;F_18_3_2 -->
<g id="edge20" class="edge"><title>M_22_4_2&#45;&#45;F_18_3_2</title>
<path fill="none" stroke="black" d="M603.799,-300.523C603.799,-289.313 603.799,-274.634 603.799,-263.044"/>
</g>
<!-- F_26_4_1 -->
<g id="node22" class="node"><title>F_26_4_1</title>
<ellipse fill="none" stroke="#888888" cx="712.799" cy="-318.593" rx="18" ry="18"/>
</g>
<!-- F_26_4_1&#45;&#45;M_25_3_1 -->
<g id="edge21" class="edge"><title>F_26_4_1&#45;&#45;M_25_3_1</title>
<path fill="none" stroke="black" d="M712.799,-300.523C712.799,-288.718 712.799,-273.067 712.799,-261.227"/>
</g>
<!-- M_29_4_1 -->
<g id="node23" class="node"><title>M_29_4_1</title>
<polygon fill="none" stroke="#888888" points="811.799,-336.593 775.799,-336.593 775.799,-300.593 811.799,-300.593 811.799,-336.593"/>
</g>
<!-- M_29_4_1&#45;&#45;M_25_3_1 -->
<g id="edge22" class="edge"><title>M_29_4_1&#45;&#45;M_25_3_1</title>
<path fill="none" stroke="black" d="M775.419,-300.892C762.069,-288.763 744.095,-272.431 730.827,-260.376"/>
</g>
<!-- F_35_4_3 -->
<g id="node24" class="node"><title>F_35_4_3</title>
<ellipse fill="#dcdcdc" stroke="#888888" cx="959.799" cy="-318.593" rx="19.6" ry="19.6"/>
<text text-anchor="middle" x="959.799" y="-312.593" font-family="Latin Modern" font-size="20.00">3</text>
</g>
<!-- F_35_4_3&#45;&#45;F_34_3_2 -->
<g id="edge23" class="edge"><title>F_35_4_3&#45;&#45;F_34_3_2</title>
<path fill="none" stroke="black" d="M974.431,-304.773C989.848,-291.265 1013.98,-270.121 1029.33,-256.668"/>
</g>
<!-- M_38_4_2 -->
<g id="node25" class="node"><title>M_38_4_2</title>
<polygon fill="#dcdcdc" stroke="#888888" points="1061.8,-336.593 1025.8,-336.593 1025.8,-300.593 1061.8,-300.593 1061.8,-336.593"/>
<text text-anchor="middle" x="1043.8" y="-312.593" font-family="Latin Modern" font-size="20.00">2</text>
</g>
<!-- M_38_4_2&#45;&#45;F_34_3_2 -->
<g id="edge24" class="edge"><title>M_38_4_2&#45;&#45;F_34_3_2</title>
<path fill="none" stroke="black" d="M1043.8,-300.523C1043.8,-289.313 1043.8,-274.634 1043.8,-263.044"/>
</g>
<!-- F_42_4_2 -->
<g id="node26" class="node"><title>F_42_4_2</title>
<ellipse fill="#dcdcdc" stroke="#888888" cx="1154.8" cy="-318.593" rx="19.6" ry="19.6"/>
<text text-anchor="middle" x="1154.8" y="-312.593" font-family="Latin Modern" font-size="20.00">2</text>
</g>
<!-- F_42_4_2&#45;&#45;M_41_3_1 -->
<g id="edge25" class="edge"><title>F_42_4_2&#45;&#45;M_41_3_1</title>
<path fill="none" stroke="black" d="M1154.8,-298.64C1154.8,-287.055 1154.8,-272.357 1154.8,-261.123"/>
</g>
<!-- M_45_4_1 -->
<g id="node27" class="node"><title>M_45_4_1</title>
<polygon fill="none" stroke="#888888" points="1255.8,-336.593 1219.8,-336.593 1219.8,-300.593 1255.8,-300.593 1255.8,-336.593"/>
</g>
<!-- M_45_4_1&#45;&#45;M_41_3_1 -->
<g id="edge26" class="edge"><title>M_45_4_1&#45;&#45;M_41_3_1</title>
<path fill="none" stroke="black" d="M1219.79,-301.623C1205.96,-289.363 1186.95,-272.503 1173.06,-260.188"/>
</g>
<!-- F_50_4_0 -->
<g id="node28" class="node"><title>F_50_4_0</title>
<ellipse fill="none" stroke="#888888" cx="1399.8" cy="-318.593" rx="18" ry="18"/>
</g>
<!-- F_50_4_0&#45;&#45;F_49_3_0 -->
<g id="edge27" class="edge"><title>F_50_4_0&#45;&#45;F_49_3_0</title>
<path fill="none" stroke="black" d="M1405.79,-301.259C1410.27,-289.063 1416.35,-272.469 1420.82,-260.283"/>
</g>
<!-- M_53_4_0 -->
<g id="node29" class="node"><title>M_53_4_0</title>
<polygon fill="none" stroke="#888888" points="1471.8,-336.593 1435.8,-336.593 1435.8,-300.593 1471.8,-300.593 1471.8,-336.593"/>
</g>
<!-- M_53_4_0&#45;&#45;F_49_3_0 -->
<g id="edge28" class="edge"><title>M_53_4_0&#45;&#45;F_49_3_0</title>
<path fill="none" stroke="black" d="M1447.54,-300.523C1443.08,-288.378 1437.13,-272.163 1432.75,-260.215"/>
</g>
<!-- F_57_4_0 -->
<g id="node30" class="node"><title>F_57_4_0</title>
<ellipse fill="none" stroke="#888888" cx="1588.8" cy="-318.593" rx="18" ry="18"/>
</g>
<!-- F_57_4_0&#45;&#45;M_56_3_0 -->
<g id="edge29" class="edge"><title>F_57_4_0&#45;&#45;M_56_3_0</title>
<path fill="none" stroke="black" d="M1588.8,-300.523C1588.8,-288.718 1588.8,-273.067 1588.8,-261.227"/>
</g>
<!-- M_60_4_0 -->
<g id="node31" class="node"><title>M_60_4_0</title>
<polygon fill="none" stroke="#888888" points="1687.8,-336.593 1651.8,-336.593 1651.8,-300.593 1687.8,-300.593 1687.8,-336.593"/>
</g>
<!-- M_60_4_0&#45;&#45;M_56_3_0 -->
<g id="edge30" class="edge"><title>M_60_4_0&#45;&#45;M_56_3_0</title>
<path fill="none" stroke="black" d="M1651.42,-300.892C1638.07,-288.763 1620.09,-272.431 1606.83,-260.376"/>
</g>
<!-- F_5_5_5 -->
<g id="node32" class="node"><title>F_5_5_5</title>
<ellipse fill="#dcdcdc" stroke="#888888" cx="19.799" cy="-394.191" rx="19.6" ry="19.6"/>
<text text-anchor="middle" x="19.799" y="-388.191" font-family="Latin Modern" font-size="20.00">5</text>
</g>
<!-- F_5_5_5&#45;&#45;F_4_4_4 -->
<g id="edge31" class="edge"><title>F_5_5_5&#45;&#45;F_4_4_4</title>
<path fill="none" stroke="black" d="M31.4022,-377.941C41.0132,-365.31 54.6037,-347.449 64.2106,-334.823"/>
</g>
<!-- M_6_5_4 -->
<g id="node33" class="node"><title>M_6_5_4</title>
<polygon fill="#dcdcdc" stroke="#888888" points="93.799,-412.191 57.799,-412.191 57.799,-376.191 93.799,-376.191 93.799,-412.191"/>
<text text-anchor="middle" x="75.799" y="-388.191" font-family="Latin Modern" font-size="20.00">4</text>
</g>
<!-- M_6_5_4&#45;&#45;F_4_4_4 -->
<g id="edge32" class="edge"><title>M_6_5_4&#45;&#45;F_4_4_4</title>
<path fill="none" stroke="black" d="M75.799,-376.121C75.799,-364.911 75.799,-350.232 75.799,-338.642"/>
</g>
<!-- F_8_5_4 -->
<g id="node34" class="node"><title>F_8_5_4</title>
<ellipse fill="#dcdcdc" stroke="#888888" cx="131.799" cy="-394.191" rx="19.6" ry="19.6"/>
<text text-anchor="middle" x="131.799" y="-388.191" font-family="Latin Modern" font-size="20.00">4</text>
</g>
<!-- F_8_5_4&#45;&#45;M_7_4_3 -->
<g id="edge33" class="edge"><title>F_8_5_4&#45;&#45;M_7_4_3</title>
<path fill="none" stroke="black" d="M138.577,-375.375C143.044,-363.633 148.862,-348.341 153.276,-336.738"/>
</g>
<!-- M_9_5_3 -->
<g id="node35" class="node"><title>M_9_5_3</title>
<polygon fill="none" stroke="#888888" points="205.799,-412.191 169.799,-412.191 169.799,-376.191 205.799,-376.191 205.799,-412.191"/>
</g>
<!-- M_9_5_3&#45;&#45;M_7_4_3 -->
<g id="edge34" class="edge"><title>M_9_5_3&#45;&#45;M_7_4_3</title>
<path fill="none" stroke="black" d="M181.305,-376.121C176.814,-364.316 170.859,-348.665 166.355,-336.825"/>
</g>
<!-- F_12_5_4 -->
<g id="node36" class="node"><title>F_12_5_4</title>
<ellipse fill="#dcdcdc" stroke="#888888" cx="243.799" cy="-394.191" rx="19.6" ry="19.6"/>
<text text-anchor="middle" x="243.799" y="-388.191" font-family="Latin Modern" font-size="20.00">4</text>
</g>
<!-- F_12_5_4&#45;&#45;F_11_4_3 -->
<g id="edge35" class="edge"><title>F_12_5_4&#45;&#45;F_11_4_3</title>
<path fill="none" stroke="black" d="M255.195,-377.941C264.634,-365.31 277.982,-347.449 287.418,-334.823"/>
</g>
<!-- M_13_5_3 -->
<g id="node37" class="node"><title>M_13_5_3</title>
<polygon fill="#dcdcdc" stroke="#888888" points="317.799,-412.191 281.799,-412.191 281.799,-376.191 317.799,-376.191 317.799,-412.191"/>
<text text-anchor="middle" x="299.799" y="-388.191" font-family="Latin Modern" font-size="20.00">3</text>
</g>
<!-- M_13_5_3&#45;&#45;F_11_4_3 -->
<g id="edge36" class="edge"><title>M_13_5_3&#45;&#45;F_11_4_3</title>
<path fill="none" stroke="black" d="M299.567,-376.121C299.415,-364.911 299.215,-350.232 299.058,-338.642"/>
</g>
<!-- F_15_5_2 -->
<g id="node38" class="node"><title>F_15_5_2</title>
<ellipse fill="none" stroke="#888888" cx="353.799" cy="-394.191" rx="18" ry="18"/>
</g>
<!-- F_15_5_2&#45;&#45;M_14_4_2 -->
<g id="edge37" class="edge"><title>F_15_5_2&#45;&#45;M_14_4_2</title>
<path fill="none" stroke="black" d="M354.031,-376.121C354.191,-364.316 354.404,-348.665 354.565,-336.825"/>
</g>
<!-- M_16_5_2 -->
<g id="node39" class="node"><title>M_16_5_2</title>
<polygon fill="none" stroke="#888888" points="425.799,-412.191 389.799,-412.191 389.799,-376.191 425.799,-376.191 425.799,-412.191"/>
</g>
<!-- M_16_5_2&#45;&#45;M_14_4_2 -->
<g id="edge38" class="edge"><title>M_16_5_2&#45;&#45;M_14_4_2</title>
<path fill="none" stroke="black" d="M395.507,-376.121C387.005,-364.316 375.735,-348.665 367.208,-336.825"/>
</g>
<!-- F_20_5_4 -->
<g id="node40" class="node"><title>F_20_5_4</title>
<ellipse fill="#dcdcdc" stroke="#888888" cx="463.799" cy="-394.191" rx="19.6" ry="19.6"/>
<text text-anchor="middle" x="463.799" y="-388.191" font-family="Latin Modern" font-size="20.00">4</text>
</g>
<!-- F_20_5_4&#45;&#45;F_19_4_3 -->
<g id="edge39" class="edge"><title>F_20_5_4&#45;&#45;F_19_4_3</title>
<path fill="none" stroke="black" d="M475.402,-377.941C485.013,-365.31 498.604,-347.449 508.211,-334.823"/>
</g>
<!-- M_21_5_3 -->
<g id="node41" class="node"><title>M_21_5_3</title>
<polygon fill="#dcdcdc" stroke="#888888" points="537.799,-412.191 501.799,-412.191 501.799,-376.191 537.799,-376.191 537.799,-412.191"/>
<text text-anchor="middle" x="519.799" y="-388.191" font-family="Latin Modern" font-size="20.00">3</text>
</g>
<!-- M_21_5_3&#45;&#45;F_19_4_3 -->
<g id="edge40" class="edge"><title>M_21_5_3&#45;&#45;F_19_4_3</title>
<path fill="none" stroke="black" d="M519.799,-376.121C519.799,-364.911 519.799,-350.232 519.799,-338.642"/>
</g>
<!-- F_23_5_3 -->
<g id="node42" class="node"><title>F_23_5_3</title>
<ellipse fill="#dcdcdc" stroke="#888888" cx="575.799" cy="-394.191" rx="19.6" ry="19.6"/>
<text text-anchor="middle" x="575.799" y="-388.191" font-family="Latin Modern" font-size="20.00">3</text>
</g>
<!-- F_23_5_3&#45;&#45;M_22_4_2 -->
<g id="edge41" class="edge"><title>F_23_5_3&#45;&#45;M_22_4_2</title>
<path fill="none" stroke="black" d="M582.577,-375.375C587.044,-363.633 592.862,-348.341 597.276,-336.738"/>
</g>
<!-- M_24_5_2 -->
<g id="node43" class="node"><title>M_24_5_2</title>
<polygon fill="none" stroke="#888888" points="649.799,-412.191 613.799,-412.191 613.799,-376.191 649.799,-376.191 649.799,-412.191"/>
</g>
<!-- M_24_5_2&#45;&#45;M_22_4_2 -->
<g id="edge42" class="edge"><title>M_24_5_2&#45;&#45;M_22_4_2</title>
<path fill="none" stroke="black" d="M625.305,-376.121C620.814,-364.316 614.859,-348.665 610.355,-336.825"/>
</g>
<!-- F_27_5_1 -->
<g id="node44" class="node"><title>F_27_5_1</title>
<ellipse fill="none" stroke="#888888" cx="685.799" cy="-394.191" rx="18" ry="18"/>
</g>
<!-- F_27_5_1&#45;&#45;F_26_4_1 -->
<g id="edge43" class="edge"><title>F_27_5_1&#45;&#45;F_26_4_1</title>
<path fill="none" stroke="black" d="M691.791,-376.857C696.266,-364.661 702.353,-348.066 706.824,-335.881"/>
</g>
<!-- M_28_5_1 -->
<g id="node45" class="node"><title>M_28_5_1</title>
<polygon fill="none" stroke="#888888" points="757.799,-412.191 721.799,-412.191 721.799,-376.191 757.799,-376.191 757.799,-412.191"/>
</g>
<!-- M_28_5_1&#45;&#45;F_26_4_1 -->
<g id="edge44" class="edge"><title>M_28_5_1&#45;&#45;F_26_4_1</title>
<path fill="none" stroke="black" d="M733.537,-376.121C729.081,-363.976 723.133,-347.761 718.749,-335.813"/>
</g>
<!-- F_30_5_1 -->
<g id="node46" class="node"><title>F_30_5_1</title>
<ellipse fill="none" stroke="#888888" cx="793.799" cy="-394.191" rx="18" ry="18"/>
</g>
<!-- F_30_5_1&#45;&#45;M_29_4_1 -->
<g id="edge45" class="edge"><title>F_30_5_1&#45;&#45;M_29_4_1</title>
<path fill="none" stroke="black" d="M793.799,-376.121C793.799,-364.316 793.799,-348.665 793.799,-336.825"/>
</g>
<!-- M_31_5_1 -->
<g id="node47" class="node"><title>M_31_5_1</title>
<polygon fill="none" stroke="#888888" points="865.799,-412.191 829.799,-412.191 829.799,-376.191 865.799,-376.191 865.799,-412.191"/>
</g>
<!-- M_31_5_1&#45;&#45;M_29_4_1 -->
<g id="edge46" class="edge"><title>M_31_5_1&#45;&#45;M_29_4_1</title>
<path fill="none" stroke="black" d="M835.275,-376.121C826.613,-364.316 815.13,-348.665 806.443,-336.825"/>
</g>
<!-- F_36_5_4 -->
<g id="node48" class="node"><title>F_36_5_4</title>
<ellipse fill="#dcdcdc" stroke="#888888" cx="903.799" cy="-394.191" rx="19.6" ry="19.6"/>
<text text-anchor="middle" x="903.799" y="-388.191" font-family="Latin Modern" font-size="20.00">4</text>
</g>
<!-- F_36_5_4&#45;&#45;F_35_4_3 -->
<g id="edge47" class="edge"><title>F_36_5_4&#45;&#45;F_35_4_3</title>
<path fill="none" stroke="black" d="M915.402,-377.941C925.013,-365.31 938.604,-347.449 948.211,-334.823"/>
</g>
<!-- M_37_5_3 -->
<g id="node49" class="node"><title>M_37_5_3</title>
<polygon fill="#dcdcdc" stroke="#888888" points="977.799,-412.191 941.799,-412.191 941.799,-376.191 977.799,-376.191 977.799,-412.191"/>
<text text-anchor="middle" x="959.799" y="-388.191" font-family="Latin Modern" font-size="20.00">3</text>
</g>
<!-- M_37_5_3&#45;&#45;F_35_4_3 -->
<g id="edge48" class="edge"><title>M_37_5_3&#45;&#45;F_35_4_3</title>
<path fill="none" stroke="black" d="M959.799,-376.121C959.799,-364.911 959.799,-350.232 959.799,-338.642"/>
</g>
<!-- F_39_5_3 -->
<g id="node50" class="node"><title>F_39_5_3</title>
<ellipse fill="#dcdcdc" stroke="#888888" cx="1015.8" cy="-394.191" rx="19.6" ry="19.6"/>
<text text-anchor="middle" x="1015.8" y="-388.191" font-family="Latin Modern" font-size="20.00">3</text>
</g>
<!-- F_39_5_3&#45;&#45;M_38_4_2 -->
<g id="edge49" class="edge"><title>F_39_5_3&#45;&#45;M_38_4_2</title>
<path fill="none" stroke="black" d="M1022.58,-375.375C1027.04,-363.633 1032.86,-348.341 1037.28,-336.738"/>
</g>
<!-- M_40_5_2 -->
<g id="node51" class="node"><title>M_40_5_2</title>
<polygon fill="none" stroke="#888888" points="1089.8,-412.191 1053.8,-412.191 1053.8,-376.191 1089.8,-376.191 1089.8,-412.191"/>
</g>
<!-- M_40_5_2&#45;&#45;M_38_4_2 -->
<g id="edge50" class="edge"><title>M_40_5_2&#45;&#45;M_38_4_2</title>
<path fill="none" stroke="black" d="M1065.3,-376.121C1060.81,-364.316 1054.86,-348.665 1050.35,-336.825"/>
</g>
<!-- F_43_5_3 -->
<g id="node52" class="node"><title>F_43_5_3</title>
<ellipse fill="#dcdcdc" stroke="#888888" cx="1127.8" cy="-394.191" rx="19.6" ry="19.6"/>
<text text-anchor="middle" x="1127.8" y="-388.191" font-family="Latin Modern" font-size="20.00">3</text>
</g>
<!-- F_43_5_3&#45;&#45;F_42_4_2 -->
<g id="edge51" class="edge"><title>F_43_5_3&#45;&#45;F_42_4_2</title>
<path fill="none" stroke="black" d="M1134.33,-375.375C1138.55,-363.889 1144.01,-349.004 1148.23,-337.5"/>
</g>
<!-- M_44_5_2 -->
<g id="node53" class="node"><title>M_44_5_2</title>
<polygon fill="#dcdcdc" stroke="#888888" points="1201.8,-412.191 1165.8,-412.191 1165.8,-376.191 1201.8,-376.191 1201.8,-412.191"/>
<text text-anchor="middle" x="1183.8" y="-388.191" font-family="Latin Modern" font-size="20.00">2</text>
</g>
<!-- M_44_5_2&#45;&#45;F_42_4_2 -->
<g id="edge52" class="edge"><title>M_44_5_2&#45;&#45;F_42_4_2</title>
<path fill="none" stroke="black" d="M1177.07,-376.121C1172.49,-364.486 1166.43,-349.115 1161.79,-337.339"/>
</g>
<!-- F_46_5_1 -->
<g id="node54" class="node"><title>F_46_5_1</title>
<ellipse fill="none" stroke="#888888" cx="1237.8" cy="-394.191" rx="18" ry="18"/>
</g>
<!-- F_46_5_1&#45;&#45;M_45_4_1 -->
<g id="edge53" class="edge"><title>F_46_5_1&#45;&#45;M_45_4_1</title>
<path fill="none" stroke="black" d="M1237.8,-376.121C1237.8,-364.316 1237.8,-348.665 1237.8,-336.825"/>
</g>
<!-- M_47_5_1 -->
<g id="node55" class="node"><title>M_47_5_1</title>
<polygon fill="none" stroke="#888888" points="1309.8,-412.191 1273.8,-412.191 1273.8,-376.191 1309.8,-376.191 1309.8,-412.191"/>
</g>
<!-- M_47_5_1&#45;&#45;M_45_4_1 -->
<g id="edge54" class="edge"><title>M_47_5_1&#45;&#45;M_45_4_1</title>
<path fill="none" stroke="black" d="M1279.27,-376.121C1270.61,-364.316 1259.13,-348.665 1250.44,-336.825"/>
</g>
<!-- F_51_5_0 -->
<g id="node56" class="node"><title>F_51_5_0</title>
<ellipse fill="none" stroke="#888888" cx="1345.8" cy="-394.191" rx="18" ry="18"/>
</g>
<!-- F_51_5_0&#45;&#45;F_50_4_0 -->
<g id="edge55" class="edge"><title>F_51_5_0&#45;&#45;F_50_4_0</title>
<path fill="none" stroke="black" d="M1356.21,-379C1365.77,-365.968 1379.87,-346.759 1389.42,-333.74"/>
</g>
<!-- M_52_5_0 -->
<g id="node57" class="node"><title>M_52_5_0</title>
<polygon fill="none" stroke="#888888" points="1417.8,-412.191 1381.8,-412.191 1381.8,-376.191 1417.8,-376.191 1417.8,-412.191"/>
</g>
<!-- M_52_5_0&#45;&#45;F_50_4_0 -->
<g id="edge56" class="edge"><title>M_52_5_0&#45;&#45;F_50_4_0</title>
<path fill="none" stroke="black" d="M1399.8,-376.121C1399.8,-364.316 1399.8,-348.665 1399.8,-336.825"/>
</g>
<!-- F_54_5_0 -->
<g id="node58" class="node"><title>F_54_5_0</title>
<ellipse fill="none" stroke="#888888" cx="1453.8" cy="-394.191" rx="18" ry="18"/>
</g>
<!-- F_54_5_0&#45;&#45;M_53_4_0 -->
<g id="edge57" class="edge"><title>F_54_5_0&#45;&#45;M_53_4_0</title>
<path fill="none" stroke="black" d="M1453.8,-376.121C1453.8,-364.316 1453.8,-348.665 1453.8,-336.825"/>
</g>
<!-- M_55_5_0 -->
<g id="node59" class="node"><title>M_55_5_0</title>
<polygon fill="none" stroke="#888888" points="1525.8,-412.191 1489.8,-412.191 1489.8,-376.191 1525.8,-376.191 1525.8,-412.191"/>
</g>
<!-- M_55_5_0&#45;&#45;M_53_4_0 -->
<g id="edge58" class="edge"><title>M_55_5_0&#45;&#45;M_53_4_0</title>
<path fill="none" stroke="black" d="M1495.27,-376.121C1486.61,-364.316 1475.13,-348.665 1466.44,-336.825"/>
</g>
<!-- F_58_5_0 -->
<g id="node60" class="node"><title>F_58_5_0</title>
<ellipse fill="none" stroke="#888888" cx="1561.8" cy="-394.191" rx="18" ry="18"/>
</g>
<!-- F_58_5_0&#45;&#45;F_57_4_0 -->
<g id="edge59" class="edge"><title>F_58_5_0&#45;&#45;F_57_4_0</title>
<path fill="none" stroke="black" d="M1567.79,-376.857C1572.27,-364.661 1578.35,-348.066 1582.82,-335.881"/>
</g>
<!-- M_59_5_0 -->
<g id="node61" class="node"><title>M_59_5_0</title>
<polygon fill="none" stroke="#888888" points="1633.8,-412.191 1597.8,-412.191 1597.8,-376.191 1633.8,-376.191 1633.8,-412.191"/>
</g>
<!-- M_59_5_0&#45;&#45;F_57_4_0 -->
<g id="edge60" class="edge"><title>M_59_5_0&#45;&#45;F_57_4_0</title>
<path fill="none" stroke="black" d="M1609.54,-376.121C1605.08,-363.976 1599.13,-347.761 1594.75,-335.813"/>
</g>
<!-- F_61_5_0 -->
<g id="node62" class="node"><title>F_61_5_0</title>
<ellipse fill="none" stroke="#888888" cx="1669.8" cy="-394.191" rx="18" ry="18"/>
</g>
<!-- F_61_5_0&#45;&#45;M_60_4_0 -->
<g id="edge61" class="edge"><title>F_61_5_0&#45;&#45;M_60_4_0</title>
<path fill="none" stroke="black" d="M1669.8,-376.121C1669.8,-364.316 1669.8,-348.665 1669.8,-336.825"/>
</g>
<!-- M_62_5_0 -->
<g id="node63" class="node"><title>M_62_5_0</title>
<polygon fill="none" stroke="#888888" points="1741.8,-412.191 1705.8,-412.191 1705.8,-376.191 1741.8,-376.191 1741.8,-412.191"/>
</g>
<!-- M_62_5_0&#45;&#45;M_60_4_0 -->
<g id="edge62" class="edge"><title>M_62_5_0&#45;&#45;M_60_4_0</title>
<path fill="none" stroke="black" d="M1711.27,-376.121C1702.61,-364.316 1691.13,-348.665 1682.44,-336.825"/>
</g>
</g>
</svg>
